HIERARCHY
ROOT Hips
{
  OFFSET 0 0.240689 0
  CHANNELS 6 Xposition Yposition Zposition Zrotation Xrotation Yrotation
  JOINT Bip01_Spine0
  {
    OFFSET 0 -24.7459 49.7988
    CHANNELS 6 Xposition Yposition Zposition Zrotation Xrotation Yrotation
    JOINT Bip01_Pelvis
    {
      OFFSET 0 0 0
      CHANNELS 6 Xposition Yposition Zposition Zrotation Xrotation Yrotation
      JOINT Bip01_Spine0_Tail
      {
        OFFSET -6.47486 -3.86022 0
        CHANNELS 6 Xposition Yposition Zposition Zrotation Xrotation Yrotation
        JOINT Bip01_Spine0_Tail1
        {
          OFFSET 10.3837 -0.00825882 0
          CHANNELS 6 Xposition Yposition Zposition Zrotation Xrotation Yrotation
          JOINT Bip01_Spine0_Tail2
          {
            OFFSET 10.3837 -0.00826263 0
            CHANNELS 6 Xposition Yposition Zposition Zrotation Xrotation Yrotation
            JOINT Bip01_Spine0_Tail3
            {
              OFFSET 10.3837 -0.00825882 0
              CHANNELS 6 Xposition Yposition Zposition Zrotation Xrotation Yrotation
              JOINT Bip01_Spine0_Tail4
              {
                OFFSET 10.3837 -0.00826263 0
                CHANNELS 6 Xposition Yposition Zposition Zrotation Xrotation Yrotation
                End Site
                {
                  OFFSET 0 0 0
                }
              }
            }
          }
        }
      }
      JOINT Bip01_R_Thigh
      {
        OFFSET 0 -1.52588e-005 -8.75617
        CHANNELS 6 Xposition Yposition Zposition Zrotation Xrotation Yrotation
        JOINT Bip01_R_Calf
        {
          OFFSET 19.7638 0 0
          CHANNELS 6 Xposition Yposition Zposition Zrotation Xrotation Yrotation
          JOINT Bip01_R_Foot
          {
            OFFSET 18.6534 0 0
            CHANNELS 6 Xposition Yposition Zposition Zrotation Xrotation Yrotation
            JOINT Bip01_R_Toe0
            {
              OFFSET 5.09145 13.9567 0
              CHANNELS 6 Xposition Yposition Zposition Zrotation Xrotation Yrotation
              JOINT Bip01_R_Toe01
              {
                OFFSET 4.28803 0 0
                CHANNELS 6 Xposition Yposition Zposition Zrotation Xrotation Yrotation
                JOINT Bip01_R_Toe02
                {
                  OFFSET 3.85801 0 0
                  CHANNELS 6 Xposition Yposition Zposition Zrotation Xrotation Yrotation
                  End Site
                  {
                    OFFSET 0 0 0
                  }
                }
              }
            }
          }
        }
      }
      JOINT Bip01_L_Thigh
      {
        OFFSET 0 1.52588e-005 8.75617
        CHANNELS 6 Xposition Yposition Zposition Zrotation Xrotation Yrotation
        JOINT Bip01_L_Calf
        {
          OFFSET 19.7638 0 0
          CHANNELS 6 Xposition Yposition Zposition Zrotation Xrotation Yrotation
          JOINT Bip01_L_Foot
          {
            OFFSET 18.6534 0 0
            CHANNELS 6 Xposition Yposition Zposition Zrotation Xrotation Yrotation
            JOINT Bip01_L_Toe0
            {
              OFFSET 5.09144 13.9567 0
              CHANNELS 6 Xposition Yposition Zposition Zrotation Xrotation Yrotation
              JOINT Bip01_L_Toe01
              {
                OFFSET 4.28802 0 0
                CHANNELS 6 Xposition Yposition Zposition Zrotation Xrotation Yrotation
                JOINT Bip01_L_Toe02
                {
                  OFFSET 3.85801 0 0
                  CHANNELS 6 Xposition Yposition Zposition Zrotation Xrotation Yrotation
                  End Site
                  {
                    OFFSET 0 0 0
                  }
                }
              }
            }
          }
        }
      }
      JOINT Bip01_Spine
      {
        OFFSET 9.14835 -0.00640869 -1.1e-005
        CHANNELS 6 Xposition Yposition Zposition Zrotation Xrotation Yrotation
        JOINT Bip01_Spine1
        {
          OFFSET 8.04366 -0.00638199 0
          CHANNELS 6 Xposition Yposition Zposition Zrotation Xrotation Yrotation
          JOINT Bip01_Spine2
          {
            OFFSET 8.04367 -0.00639343 0
            CHANNELS 6 Xposition Yposition Zposition Zrotation Xrotation Yrotation
            JOINT Bip01_Spine3
            {
              OFFSET 8.04304 -0.00831222 0
              CHANNELS 6 Xposition Yposition Zposition Zrotation Xrotation Yrotation
              JOINT Bip01_Neck
              {
                OFFSET 10.6685 1.06813 0
                CHANNELS 6 Xposition Yposition Zposition Zrotation Xrotation Yrotation
                JOINT Bip01_R_Clavicle
                {
                  OFFSET -3.21661 -4.89635 -9.04802
                  CHANNELS 6 Xposition Yposition Zposition Zrotation Xrotation Yrotation
                  JOINT Bip01_R_UpperArm
                  {
                    OFFSET 19.0492 0 0
                    CHANNELS 6 Xposition Yposition Zposition Zrotation Xrotation Yrotation
                    JOINT Bip01_R_Forearm
                    {
                      OFFSET 10.3706 0 0
                      CHANNELS 6 Xposition Yposition Zposition Zrotation Xrotation Yrotation
                      JOINT Bip01_R_Hand
                      {
                        OFFSET 22.8632 0 0
                        CHANNELS 6 Xposition Yposition Zposition Zrotation Xrotation Yrotation
                        JOINT Bip01_R_Finger0
                        {
                          OFFSET 6.48259 0.103651 0.504496
                          CHANNELS 6 Xposition Yposition Zposition Zrotation Xrotation Yrotation
                          JOINT Bip01_R_Finger01
                          {
                            OFFSET 3.66847 0 0
                            CHANNELS 6 Xposition Yposition Zposition Zrotation Xrotation Yrotation
                            End Site
                            {
                              OFFSET 0 0 0
                            }
                          }
                        }
                      }
                    }
                  }
                }
                JOINT Bip01_L_Clavicle
                {
                  OFFSET -3.21661 -4.89641 9.04797
                  CHANNELS 6 Xposition Yposition Zposition Zrotation Xrotation Yrotation
                  JOINT Bip01_L_UpperArm
                  {
                    OFFSET 19.0492 0 0
                    CHANNELS 6 Xposition Yposition Zposition Zrotation Xrotation Yrotation
                    JOINT Bip01_L_Forearm
                    {
                      OFFSET 10.3706 0 0
                      CHANNELS 6 Xposition Yposition Zposition Zrotation Xrotation Yrotation
                      JOINT Bip01_L_Hand
                      {
                        OFFSET 22.8631 0 0
                        CHANNELS 6 Xposition Yposition Zposition Zrotation Xrotation Yrotation
                        JOINT Bip01_L_Finger0
                        {
                          OFFSET 6.48257 0.103655 -0.504492
                          CHANNELS 6 Xposition Yposition Zposition Zrotation Xrotation Yrotation
                          JOINT Bip01_L_Finger01
                          {
                            OFFSET 3.66844 0 0
                            CHANNELS 6 Xposition Yposition Zposition Zrotation Xrotation Yrotation
                            End Site
                            {
                              OFFSET 0 0 0
                            }
                          }
                        }
                      }
                    }
                  }
                }
                JOINT Bip01_Neck1
                {
                  OFFSET 7.52459 -0.00656509 0
                  CHANNELS 6 Xposition Yposition Zposition Zrotation Xrotation Yrotation
                  JOINT Bip01_Neck2
                  {
                    OFFSET 8.4783 -0.00588226 0
                    CHANNELS 6 Xposition Yposition Zposition Zrotation Xrotation Yrotation
                    JOINT Bip01_Head
                    {
                      OFFSET 8.41606 0 0
                      CHANNELS 6 Xposition Yposition Zposition Zrotation Xrotation Yrotation
                      JOINT EyesBlue
                      {
                        OFFSET 0 0 0
                        CHANNELS 6 Xposition Yposition Zposition Zrotation Xrotation Yrotation
                        JOINT EyesBlue_2
                        {
                          OFFSET 0 -0.500007 0
                          CHANNELS 6 Xposition Yposition Zposition Zrotation Xrotation Yrotation
                          End Site
                          {
                            OFFSET 0 0 0
                          }
                        }
                      }
                      JOINT Bip01_Head2_Eyeleds
                      {
                        OFFSET 6.52751 7.61746 2.2e-005
                        CHANNELS 6 Xposition Yposition Zposition Zrotation Xrotation Yrotation
                        End Site
                        {
                          OFFSET 0 0 0
                        }
                      }
                      JOINT Bip01_Head_Muzzle
                      {
                        OFFSET 2.88628 13.9448 3.88994
                        CHANNELS 6 Xposition Yposition Zposition Zrotation Xrotation Yrotation
                        End Site
                        {
                          OFFSET 0 0 0
                        }
                      }
                      JOINT Bip01_Head1_Jaw
                      {
                        OFFSET 0.271065 1.32405 0
                        CHANNELS 6 Xposition Yposition Zposition Zrotation Xrotation Yrotation
                        JOINT _Bip01_Head11_TungeControler
                        {
                          OFFSET 4.61616 5.82872 0
                          CHANNELS 6 Xposition Yposition Zposition Zrotation Xrotation Yrotation
                          JOINT _Bip01_Ponytail3_tunge
                          {
                            OFFSET 5.17785 2.98805 0
                            CHANNELS 6 Xposition Yposition Zposition Zrotation Xrotation Yrotation
                            JOINT Bip01_Ponytail31
                            {
                              OFFSET 5.57569 0 0
                              CHANNELS 6 Xposition Yposition Zposition Zrotation Xrotation Yrotation
                              JOINT Bip01_Ponytail32
                              {
                                OFFSET 2.93165 0 0
                                CHANNELS 6 Xposition Yposition Zposition Zrotation Xrotation Yrotation
                                JOINT Bip01_Ponytail3Nub
                                {
                                  OFFSET 3.30155 0 0
                                  CHANNELS 6 Xposition Yposition Zposition Zrotation Xrotation Yrotation
                                  End Site
                                  {
                                    OFFSET 0 0 0
                                  }
                                }
                              }
                            }
                          }
                        }
                        JOINT Bip01_Head_JawNub
                        {
                          OFFSET 15.5776 -0.000389099 0
                          CHANNELS 6 Xposition Yposition Zposition Zrotation Xrotation Yrotation
                          End Site
                          {
                            OFFSET 0 0 0
                          }
                        }
                      }
                      JOINT Bip01_Ponytail2
                      {
                        OFFSET 9.40334 1.03973 -6.51764
                        CHANNELS 6 Xposition Yposition Zposition Zrotation Xrotation Yrotation
                        JOINT Bip01_Ponytail21
                        {
                          OFFSET 2.77018 -0.00640106 1.33514e-005
                          CHANNELS 6 Xposition Yposition Zposition Zrotation Xrotation Yrotation
                          End Site
                          {
                            OFFSET 0 0 0
                          }
                        }
                      }
                      JOINT Bip01_Ponytail1
                      {
                        OFFSET 9.40368 1.03969 6.51768
                        CHANNELS 6 Xposition Yposition Zposition Zrotation Xrotation Yrotation
                        JOINT Bip01_Ponytail11
                        {
                          OFFSET 2.77018 -0.00640487 0
                          CHANNELS 6 Xposition Yposition Zposition Zrotation Xrotation Yrotation
                          End Site
                          {
                            OFFSET 0 0 0
                          }
                        }
                      }
                    }
                  }
                }
              }
            }
          }
        }
      }
    }
  }
}
MOTION
Frames:	4
Frame Time:	0.0333333
0 0 -1e-006 -0 -90 -0 -1.63258 -24.5067 50.4629 93.6468 -0.00062969 87.4122 0 0 0 -90 -3.50835e-015 -90 -6.45929 -3.86079 0.44028 136.812 2.22602 -6.42499 10.3793 -0.007175 1.63442e-010 -26.1839 -0.444315 -3.58277 10.3834 -0.00827 2.38562e-010 -10.2739 0.643854 -3.54744 10.3852 -0.008052 2.85306e-010 16.3167 -1.69327 -8.01494 10.3847 -0.008152 3.4084e-010 13.1384 -0.816993 -3.49577 9e-006 -1.5e-005 -8.75617 -93.6883 -17.1491 170.652 19.7638 2e-006 -1.24345e-013 -58.8532 0.00032564 0.00108804 18.6534 3.55271e-014 1e-006 -28.7531 -1.17771 6.32201 5.09143 13.9567 7.5746e-008 115.334 3.50996 2.47441 4.288 1e-006 -6.39488e-014 53.6716 8.43271 1.28952 3.85799 3.55271e-015 3.55271e-015 -45 -1.2528e-005 -2.17784e-006 -1.7e-005 1.1e-005 8.75617 -109.372 -3.51483 179.47 19.7638 2e-006 -2.84217e-014 -64.1808 5.05052e-005 0.00022369 18.6534 3e-006 -6.03961e-014 -26.3651 1.10439 -1.3284 5.09143 13.9567 -8.58966e-007 115.669 0.0112507 5.02238 4.288 -1e-006 1.42109e-014 51.474 -6.03002 0.26355 3.85799 -5.77316e-014 -1e-006 -45 -1.36817e-005 -1.53933e-005 9.12717 -0.006404 -0.622128 2.03988 0.226734 6.34708 8.04366 -0.006401 -2.89352e-009 4.32995e-005 5.77772e-005 2.45638 8.04367 -0.006401 -1.44859e-009 -1.30323 -0.0557469 2.45112 8.04304 -0.008319 -1.00975e-009 -6.24121 -0.428684 3.95137 10.67 1.06796 1.99332e-006 -18.3499 -6.21613 10.4581 -0.984799 -4.15278 -9.89856 -80.9467 -77.9601 -164.425 19.0492 3.55272e-015 -2.13163e-014 90.6263 17.8407 -99.8216 10.3706 1.24345e-014 -1.77636e-015 -41.3114 0.000296172 0.00045103 22.8631 1e-006 -1e-006 -20.4292 16.5866 0.334093 6.48256 0.103653 0.504498 -68.7322 -2.18847 -14.2873 3.66843 -3.99681e-015 -2.66453e-015 34.6071 -5.05072e-006 1.60648e-005 -4.24724 -6.11671 7.79195 140.109 76.1577 -55.676 19.0492 -7.10543e-014 3e-006 100.442 -15.912 107.412 10.3706 2e-006 1e-006 -36.8704 0.00139148 0.00182673 22.8631 -1e-006 -1.20792e-013 -16.8205 -6.65951 2.04011 6.48255 0.103651 -0.504496 -81.8649 -0.685268 15.4842 3.66843 9.99999e-007 -2e-006 40.107 -4.26305e-005 2.80176e-005 7.52562 -0.006729 -8.16289e-011 -2.8635 -6.21612 10.458 8.47686 -0.006454 -3.68145e-010 17.2427 -6.21613 10.458 8.41604 7e-006 2.11386e-013 -71.2506 -23.5417 10.2232 -3e-006 -7.49623e-013 -3e-006 -23.1098 1.37701e-015 90 2.03802e-006 -0.500008 6.25415e-006 -150.06 90 -119.94 0 0 0 -113.549 1.52588e-005 -180 2.8863 13.9448 3.88993 -22.989 1.3702e-015 90 0 0 0 -81.974 -1.52588e-005 -180 0 0 0 -108.721 -2.02887e-006 -1.99854e-005 0 0 0 120.523 0.946035 -2.55005 0 0 0 5.36672 -2.6122e-007 -1.62923e-008 0 0 0 -17.3062 8.10352e-007 1.29299e-007 0 0 0 -26.1943 8.31046e-007 -1.74527e-007 15.5776 -0.000396 -7e-006 4.07509e-015 1.98785e-016 -6.36111e-015 9.40333 1.03972 -6.51764 -25.2447 22.6029 18.1009 2.77018 -0.006404 9.9928e-007 2.43578 6.84545 -7.49568 9.40368 1.03969 6.51767 -25.2452 -22.6038 -18.0992 2.77018 -0.006408 -2.99995e-006 2.43572 -6.84869 7.49742 
0 0 -1e-006 -0 -90 -0 -1.63824 -24.4698 50.4629 93.6471 -0.000620021 87.4123 0 0 0 -90 -3.50835e-015 -90 -6.45929 -3.86079 0.44028 136.729 2.24299 -6.33809 10.3793 -0.007175 1.63219e-010 -26.2668 -0.431446 -3.49969 10.3834 -0.00827 2.36156e-010 -10.0242 0.613823 -3.46821 10.3852 -0.008052 2.81079e-010 16.2453 -1.64888 -7.82945 10.3847 -0.008152 3.35392e-010 13.0567 -0.793126 -3.41585 9e-006 -1.5e-005 -8.75617 -93.5077 -17.1691 170.693 19.7638 2e-006 -1.3145e-013 -58.7251 0.000328081 0.00108732 18.6534 3.55271e-014 1e-006 -28.5775 -1.17577 6.3327 5.09143 13.9567 4.79492e-008 115.203 3.50254 2.47881 4.288 1e-006 -6.75016e-014 53.6716 8.43271 1.28952 3.85799 8.88178e-016 0 -45 -1.24788e-005 -2.1375e-006 -1.7e-005 1.1e-005 8.75617 -109.201 -3.51284 179.475 19.7638 2e-006 -3.37508e-014 -64.0988 5.08272e-005 0.000223621 18.6534 3e-006 -6.57252e-014 -26.127 1.09591 -1.3277 5.09143 13.9567 -8.50058e-007 115.537 0.00913516 5.01788 4.288 -1e-006 7.10543e-015 51.474 -6.03002 0.26355 3.85799 -7.37188e-014 -1e-006 -45 -1.37318e-005 -1.5441e-005 9.12717 -0.006404 -0.622128 2.01555 0.224028 6.34718 8.04366 -0.006401 -2.88821e-009 4.32979e-005 5.77626e-005 2.45662 8.04367 -0.006401 -1.44499e-009 -1.39966 -0.0598742 2.45101 8.04304 -0.008319 -9.86695e-010 -6.21751 -0.42502 3.93302 10.67 1.06796 1.99256e-006 -18.4873 -6.24133 10.4432 -0.975153 -4.15508 -9.89856 -80.8156 -77.9592 -164.427 19.0492 -1.77636e-015 1.42109e-014 90.7777 18.1061 -99.8432 10.3706 1.24345e-014 1.77636e-015 -40.6623 0.000301246 0.000447653 22.8631 1e-006 -1e-006 -20.6828 16.7014 0.260543 6.48256 0.103653 0.504498 -68.7322 -2.18847 -14.2873 3.66843 -2.70895e-014 -2.66453e-015 34.6071 -4.99971e-006 1.59901e-005 -4.2329 -6.12655 7.79195 140.242 76.1578 -55.6764 19.0492 -6.21725e-014 3e-006 100.566 -16.2856 107.421 10.3706 2e-006 1e-006 -36.0943 0.00141607 0.0018076 22.8631 -1e-006 -1.36779e-013 -17.0719 -6.65447 2.04671 6.48255 0.103651 -0.504496 -81.9022 -0.695613 15.4838 3.66843 9.99999e-007 -2e-006 40.107 -4.26127e-005 2.80056e-005 7.52562 -0.006729 -8.54303e-011 -3.00096 -6.24133 10.4431 8.47686 -0.006454 -3.74907e-010 17.1052 -6.24133 10.4431 8.41604 7e-006 1.81188e-013 -70.7227 -23.5277 10.0534 -3e-006 -7.4607e-013 -3e-006 -23.1098 1.37701e-015 90 2.03816e-006 -0.500008 6.25487e-006 -149.904 90 -120.096 0 0 0 -113.549 1.52588e-005 -180 2.8863 13.9448 3.88993 -22.989 1.3702e-015 90 0 0 0 -82.6464 -1.52588e-005 -180 0 0 0 -111.035 -1.22471e-006 -2.00963e-005 0 0 0 123.16 0.757096 -2.03995 0 0 0 4.25965 -2.0967e-007 -1.65206e-008 0 0 0 -18.3714 8.63973e-007 1.3599e-007 0 0 0 -26.1943 8.14626e-007 -2.00619e-007 15.5776 -0.000396 -7e-006 1.63997e-015 1.78906e-015 -0 9.40333 1.03972 -6.51764 -24.9875 22.6905 17.8038 2.77018 -0.006404 9.99272e-007 2.43451 6.82618 -7.47442 9.40368 1.03969 6.51767 -25.0304 -22.7765 -17.6437 2.77018 -0.006408 -2.99995e-006 2.42773 -7.15636 7.65281 
0 0 -1e-006 -0 -90 -0 -1.64245 -24.4389 50.4629 93.6468 -0.00062969 87.4122 0 0 0 -90 -3.50835e-015 -90 -6.45929 -3.86079 0.44028 136.501 2.28937 -6.09709 10.3793 -0.007175 1.6251e-010 -26.4967 -0.39638 -3.26939 10.3834 -0.00827 2.29438e-010 -9.33189 0.534218 -3.24734 10.3852 -0.008052 2.69529e-010 16.0468 -1.52699 -7.315 10.3847 -0.008152 3.20554e-010 12.8298 -0.728145 -3.19388 9e-006 -1.5e-005 -8.75617 -93.3351 -17.1914 170.735 19.7638 2e-006 -1.27898e-013 -58.6051 0.000330364 0.00108663 18.6534 3.55271e-014 1e-006 -28.3877 -1.16699 6.34124 5.09143 13.9567 2.09264e-008 115.058 3.49402 2.48277 4.288 1e-006 -7.10543e-014 53.6716 8.43271 1.28952 3.85799 2.22045e-015 1.42109e-014 -45 -1.24348e-005 -2.10162e-006 -1.7e-005 1.1e-005 8.75617 -109.034 -3.51191 179.482 19.7638 2e-006 -3.19744e-014 -64.0161 5.11521e-005 0.00022355 18.6534 3e-006 -6.57252e-014 -25.8844 1.08909 -1.32838 5.09143 13.9567 -8.40946e-007 115.397 0.00685501 5.01314 4.288 -1e-006 1.42109e-014 51.474 -6.03002 0.26355 3.85799 -6.83897e-014 -1e-006 -45 -1.37779e-005 -1.54849e-005 9.12717 -0.006404 -0.622128 1.99298 0.221518 6.34727 8.04366 -0.006401 -2.88242e-009 4.32964e-005 5.77423e-005 2.45685 8.04367 -0.006401 -1.44153e-009 -1.48915 -0.0637049 2.45092 8.04304 -0.008319 -9.65132e-010 -6.19551 -0.421633 3.916 10.67 1.06796 1.99187e-006 -18.6149 -6.26469 10.4293 -0.9665 -4.15705 -9.89856 -80.6968 -77.9602 -164.427 19.0492 -3.55272e-015 -1.42109e-014 90.9161 18.3493 -99.868 10.3706 -5.32907e-015 -8.88178e-016 -40.0773 0.000305785 0.000444559 22.8631 1e-006 -1e-006 -20.908 16.8118 0.194606 6.48256 0.103653 0.504498 -68.7322 -2.18847 -14.2873 3.66843 -7.10544e-015 7.10543e-015 34.6071 -4.94582e-006 1.59151e-005 -4.22022 -6.1353 7.79195 140.361 76.158 -55.6759 19.0492 -6.9278e-014 3e-006 100.679 -16.6252 107.429 10.3706 2e-006 1e-006 -35.3953 0.00143799 0.00179009 22.8631 -1e-006 -1.32783e-013 -17.2877 -6.64986 2.05443 6.48255 0.103651 -0.504496 -81.9391 -0.705826 15.4833 3.66843 9.99999e-007 -2e-006 40.107 -4.25764e-005 2.79784e-005 7.52562 -0.006729 -8.89724e-011 -3.12852 -6.26468 10.4293 8.47686 -0.006454 -3.81242e-010 16.9777 -6.26468 10.4292 8.41604 7e-006 2.25597e-013 -70.2527 -23.5162 9.90315 -3e-006 -7.67386e-013 -3e-006 -23.1098 1.37701e-015 90 2.03825e-006 -0.500008 6.2554e-006 -149.79 90 -120.21 0 0 0 -113.549 1.52588e-005 -180 2.8863 13.9448 3.88993 -22.989 1.3702e-015 90 0 0 0 -83.3187 -7.01671e-015 -180 0 0 0 -113.348 -4.19798e-007 -2.01739e-005 0 0 0 125.8 0.567975 -1.5299 0 0 0 3.15261 -1.5665e-007 -1.49978e-008 0 0 0 -19.4365 9.16473e-007 1.42737e-007 0 0 0 -26.1943 8.00308e-007 -2.25993e-007 15.5776 -0.000396 -7e-006 2.6339e-015 5.96354e-016 -3.18055e-015 9.40333 1.03972 -6.51764 -24.3354 22.9062 17.0514 2.77018 -0.006404 9.99255e-007 2.43131 6.77751 -7.42074 9.40368 1.03969 6.51767 -24.4804 -23.2052 -16.4882 2.77018 -0.006408 -2.99996e-006 2.41127 -7.93325 8.04543 
0 0 -1e-006 -0 -90 -0 -1.64382 -24.4175 50.4629 93.6468 -0.00062969 87.4122 0 0 0 -90 -3.50835e-015 -90 -6.45929 -3.86079 0.44028 136.156 2.35776 -5.73178 10.3793 -0.007175 1.61304e-010 -26.8452 -0.345056 -2.92038 10.3834 -0.00827 2.19254e-010 -8.2824 0.423928 -2.90958 10.3852 -0.008052 2.5249e-010 15.7441 -1.34588 -6.53524 10.3847 -0.008152 2.9878e-010 12.4855 -0.633082 -2.85668 9e-006 -1.5e-005 -8.75617 -93.2033 -17.2092 170.77 19.7638 2e-006 -1.24345e-013 -58.5146 0.000332085 0.00108611 18.6534 4.26326e-014 1e-006 -28.2318 -1.15758 6.34596 5.09143 13.9567 7.54774e-011 114.939 3.48678 2.48556 4.288 1e-006 -7.10543e-014 53.6716 8.43271 1.28952 3.85799 1.24345e-014 7.10543e-015 -45 -1.24038e-005 -2.07678e-006 -1.7e-005 1.1e-005 8.75617 -108.902 -3.51303 179.489 19.7638 2e-006 -2.84217e-014 -63.9504 5.14099e-005 0.000223494 18.6534 3e-006 -6.21725e-014 -25.6802 1.08536 -1.32925 5.09143 13.9567 -8.33222e-007 115.256 0.0045082 5.00841 4.288 -1e-006 1.24345e-014 51.474 -6.03002 0.26355 3.85799 -7.90479e-014 -1e-006 -45 -1.38303e-005 -1.55338e-005 9.12717 -0.006404 -0.622128 1.97427 0.219437 6.34734 8.04366 -0.006401 -2.87759e-009 4.32951e-005 5.77253e-005 2.45708 8.04367 -0.006401 -1.43865e-009 -1.56334 -0.0668802 2.45084 8.04304 -0.008319 -9.47241e-010 -6.17728 -0.418836 3.90189 10.67 1.06796 1.99131e-006 -18.7206 -6.28403 10.4177 -0.960348 -4.15845 -9.89856 -80.6169 -77.9595 -164.431 19.0492 -1.77636e-015 7.10543e-015 91.0237 18.5244 -99.8937 10.3706 -1.24345e-014 6.21725e-015 -39.656 0.000309031 0.000442298 22.8631 1e-006 -1e-006 -21.0678 16.9069 0.143288 6.48256 0.103653 0.504498 -68.7322 -2.18847 -14.2873 3.66843 -1.24345e-014 0 34.6071 -4.89785e-006 1.585e-005 -4.21117 -6.14154 7.79195 140.445 76.1578 -55.6757 19.0492 -7.10543e-014 3e-006 100.761 -16.8698 107.434 10.3706 2e-006 1e-006 -34.8995 0.00145341 0.00177751 22.8631 -1e-006 -1.2168e-013 -17.4294 -6.64772 2.06296 6.48255 0.103651 -0.504496 -81.9749 -0.715747 15.4829 3.66843 9.99999e-007 -2e-006 40.107 -4.24281e-005 2.78496e-005 7.52562 -0.006729 -9.19656e-011 -3.23428 -6.28402 10.4177 8.47686 -0.006454 -3.86525e-010 16.872 -6.28403 10.4176 8.41604 7e-006 2.20268e-013 -69.9214 -23.5091 9.79689 -3e-006 -7.67386e-013 -3e-006 -23.1098 1.37701e-015 90 2.03826e-006 -0.500008 6.25547e-006 -149.776 90 -120.224 0 0 0 -113.549 1.52588e-005 -180 2.8863 13.9448 3.88993 -22.989 1.3702e-015 90 0 0 0 -83.9911 7.01671e-015 -180 0 0 0 -115.662 3.85413e-007 -2.02168e-005 0 0 0 128.443 0.378712 -1.0199 0 0 0 2.0456 -1.02483e-007 -1.16725e-008 0 0 0 -20.5016 9.68415e-007 1.50349e-007 0 0 0 -26.1943 7.88784e-007 -2.49984e-007 15.5776 -0.000396 -7e-006 2.68359e-015 7.95139e-016 3.18055e-015 9.40333 1.03972 -6.51764 -23.4732 23.1772 16.0578 2.77018 -0.006404 9.99235e-007 2.42723 6.7136 -7.35027 9.40368 1.03969 6.51767 -23.7416 -23.7523 -14.9589 2.77018 -0.006408 -2.99998e-006 2.39774 -8.95324 8.56168 
